<svg xmlns="http://www.w3.org/2000/svg" width="25.001" height="30" viewBox="0 0 25.001 30">
  <path id="shopping_bag" data-name="shopping bag" d="M59.409,8.187a.23.23,0,0,0-.227-.217H55.091V6.8a6.594,6.594,0,1,0-13.182,0V7.971h-4.09a.23.23,0,0,0-.227.217L36,29.755a.238.238,0,0,0,.06.177.223.223,0,0,0,.167.075H60.773a.224.224,0,0,0,.167-.075.239.239,0,0,0,.06-.177ZM43.728,6.8a4.775,4.775,0,1,1,9.545,0V7.971H43.728Zm-.909,7.736a2.312,2.312,0,0,1-2.273-2.345,2.217,2.217,0,0,1,1.364-2.149v2.149a.91.91,0,1,0,1.818,0v-2.15a2.222,2.222,0,0,1,1.364,2.148,2.312,2.312,0,0,1-2.273,2.344Zm11.364,0a2.312,2.312,0,0,1-2.273-2.345,2.217,2.217,0,0,1,1.364-2.149v2.149a.91.91,0,1,0,1.818,0v-2.15a2.222,2.222,0,0,1,1.364,2.148,2.312,2.312,0,0,1-2.274,2.344Z" transform="translate(-35.999 -0.007)"/>
</svg>
